<?xml version="1.0" encoding="UTF-8"?>
<svg xmlns="http://www.w3.org/2000/svg" xmlns:xlink="http://www.w3.org/1999/xlink" width="32px" height="32px" viewBox="0 0 32 32" version="1.1">
<g id="surface1">
<path style=" stroke:none;fill-rule:nonzero;fill:rgb(98.039216%,34.509804%,93.333333%);fill-opacity:1;" d="M 15.910156 1.460938 C 15.046875 2.199219 14.28125 3.214844 14.050781 3.914062 L 13.996094 4.085938 L 13.78125 4.191406 C 12.730469 4.695312 11.632812 5.925781 11.148438 7.148438 C 10.914062 7.738281 10.847656 8.050781 10.832031 8.625 C 10.824219 9.023438 10.824219 9.085938 10.886719 9.351562 C 10.984375 9.800781 11.109375 10.101562 11.367188 10.492188 C 11.601562 10.851562 12.15625 11.386719 12.570312 11.664062 C 12.976562 11.9375 14.152344 12.109375 14.8125 11.988281 C 15.765625 11.816406 16.328125 11.238281 16.554688 10.199219 C 16.625 9.882812 16.628906 9.378906 16.566406 8.925781 C 16.503906 8.472656 16.515625 7.605469 16.59375 7.335938 C 16.652344 7.128906 16.726562 6.984375 16.824219 6.871094 C 16.960938 6.710938 17.164062 6.242188 17.265625 5.84375 C 17.355469 5.492188 17.355469 5.058594 17.265625 4.816406 C 17.144531 4.5 16.949219 4.289062 16.636719 4.136719 C 16.484375 4.0625 15.984375 3.921875 15.648438 3.859375 C 15.539062 3.835938 15.539062 3.835938 15.546875 3.75 C 15.5625 3.570312 15.652344 3.152344 15.710938 2.984375 C 15.820312 2.660156 15.964844 2.414062 16.1875 2.175781 C 16.308594 2.042969 16.316406 2.027344 16.351562 1.824219 C 16.390625 1.558594 16.390625 1.355469 16.351562 1.28125 C 16.292969 1.171875 16.203125 1.203125 15.910156 1.460938 Z M 15.910156 1.460938 "/>
<path style=" stroke:none;fill-rule:nonzero;fill:rgb(98.039216%,34.509804%,93.333333%);fill-opacity:1;" d="M 23 3.390625 C 22.941406 3.453125 22.84375 3.609375 22.78125 3.738281 C 22.683594 3.953125 22.675781 3.984375 22.699219 4.066406 C 22.710938 4.121094 22.726562 4.292969 22.726562 4.453125 C 22.726562 4.699219 22.714844 4.78125 22.648438 5.015625 C 22.609375 5.164062 22.523438 5.394531 22.460938 5.523438 C 22.3125 5.835938 22.28125 5.886719 22.242188 5.851562 C 22.210938 5.828125 21.828125 5.691406 21.488281 5.585938 C 21.21875 5.503906 20.84375 5.5 20.632812 5.578125 C 20.113281 5.769531 19.75 6.34375 19.613281 7.191406 C 19.570312 7.453125 19.558594 7.683594 19.585938 7.789062 C 19.613281 7.917969 19.53125 8.238281 19.398438 8.519531 C 19.210938 8.917969 18.898438 9.371094 18.511719 9.816406 C 18.328125 10.027344 18.132812 10.367188 18.011719 10.6875 C 17.765625 11.339844 17.761719 11.9375 18 12.449219 C 18.324219 13.140625 19.148438 13.710938 20.269531 14.027344 C 20.46875 14.082031 20.488281 14.082031 20.808594 14.054688 C 21.308594 14.007812 21.648438 13.941406 22.003906 13.8125 C 23.234375 13.371094 23.996094 12.367188 24.238281 10.867188 C 24.300781 10.492188 24.316406 9.675781 24.265625 9.273438 C 24.15625 8.378906 23.921875 7.652344 23.554688 7.066406 L 23.433594 6.867188 L 23.46875 6.753906 C 23.628906 6.210938 23.628906 5.175781 23.472656 4.289062 C 23.390625 3.828125 23.273438 3.382812 23.21875 3.328125 C 23.152344 3.253906 23.121094 3.261719 23 3.390625 Z M 23 3.390625 "/>
<path style=" stroke:none;fill-rule:nonzero;fill:rgb(98.039216%,34.509804%,93.333333%);fill-opacity:1;" d="M 4.890625 7.105469 C 4.675781 7.386719 4.222656 8.246094 4.039062 8.722656 C 3.824219 9.265625 3.675781 9.875 3.675781 10.210938 C 3.675781 10.292969 3.65625 10.335938 3.574219 10.425781 C 2.859375 11.234375 2.386719 12.75 2.433594 14.085938 C 2.476562 15.253906 2.816406 16.167969 3.457031 16.820312 C 3.980469 17.351562 4.667969 17.671875 5.601562 17.824219 C 5.996094 17.886719 6.050781 17.886719 6.320312 17.824219 C 7.453125 17.550781 8.234375 17.050781 8.59375 16.378906 C 8.75 16.085938 8.8125 15.824219 8.808594 15.460938 C 8.808594 14.953125 8.699219 14.59375 8.292969 13.75 C 8.085938 13.328125 7.628906 12.296875 7.46875 11.914062 C 7.441406 11.84375 7.40625 11.753906 7.386719 11.707031 C 7.367188 11.664062 7.316406 11.484375 7.277344 11.308594 C 7.1875 10.933594 7.132812 10.765625 7 10.480469 C 6.726562 9.890625 6.308594 9.507812 5.859375 9.421875 C 5.699219 9.390625 5.265625 9.40625 5.132812 9.449219 C 5.085938 9.460938 5.046875 9.460938 5.039062 9.453125 C 5.035156 9.445312 5.015625 9.3125 5.003906 9.160156 C 4.957031 8.703125 5.03125 8.285156 5.214844 7.953125 C 5.246094 7.890625 5.273438 7.800781 5.273438 7.753906 C 5.273438 7.636719 5.210938 7.285156 5.175781 7.1875 C 5.105469 7.007812 4.988281 6.976562 4.890625 7.105469 Z M 4.890625 7.105469 "/>
<path style=" stroke:none;fill-rule:nonzero;fill:rgb(98.039216%,34.509804%,93.333333%);fill-opacity:1;" d="M 29.296875 14.828125 C 29.238281 14.878906 29.117188 14.996094 29.03125 15.101562 C 28.90625 15.25 28.875 15.304688 28.875 15.375 C 28.871094 15.550781 28.800781 15.851562 28.71875 16.042969 C 28.636719 16.234375 28.429688 16.574219 28.394531 16.574219 C 28.386719 16.574219 28.339844 16.519531 28.289062 16.453125 C 28.238281 16.386719 28.101562 16.234375 27.980469 16.121094 C 27.710938 15.863281 27.484375 15.746094 27.1875 15.699219 C 26.671875 15.621094 26.039062 15.890625 25.394531 16.460938 C 25.261719 16.578125 25.148438 16.6875 25.148438 16.699219 C 25.148438 16.753906 23.96875 17.566406 23.152344 18.074219 C 22.378906 18.558594 22.066406 18.808594 21.808594 19.15625 C 21.101562 20.117188 21.347656 21.339844 22.496094 22.53125 C 22.75 22.796875 22.773438 22.816406 23.039062 22.941406 C 23.640625 23.226562 24.125 23.347656 24.710938 23.367188 C 25.105469 23.378906 25.292969 23.363281 25.585938 23.289062 C 26.898438 22.949219 28.035156 21.699219 28.609375 19.964844 C 28.78125 19.453125 28.875 18.933594 28.875 18.523438 C 28.875 18.316406 28.878906 18.300781 28.976562 18.136719 C 29.15625 17.816406 29.335938 17.273438 29.449219 16.699219 C 29.566406 16.113281 29.636719 14.953125 29.570312 14.824219 C 29.519531 14.730469 29.425781 14.734375 29.296875 14.828125 Z M 29.296875 14.828125 "/>
<path style=" stroke:none;fill-rule:nonzero;fill:rgb(98.039216%,34.509804%,93.333333%);fill-opacity:1;" d="M 12.488281 17.242188 C 11.9375 17.308594 11.550781 17.414062 11.175781 17.601562 C 10.410156 17.984375 9.792969 18.703125 9.421875 19.648438 C 9.277344 20.019531 9.28125 20.011719 9.0625 20.234375 C 8.359375 20.945312 7.40625 21.335938 6.40625 21.324219 C 6.128906 21.320312 5.984375 21.363281 5.691406 21.535156 C 5.234375 21.808594 4.851562 22.375 4.6875 23.015625 C 4.574219 23.484375 4.492188 24.324219 4.523438 24.761719 C 4.578125 25.476562 4.835938 26.136719 5.308594 26.761719 C 5.484375 26.992188 5.90625 27.421875 6.101562 27.566406 C 6.460938 27.835938 7.714844 28.460938 8.761719 28.898438 C 9.703125 29.289062 10.46875 29.546875 11.511719 29.828125 C 11.609375 29.855469 11.765625 29.898438 11.863281 29.925781 C 12.808594 30.191406 13.496094 30.347656 14.460938 30.511719 C 15.226562 30.640625 16.191406 30.746094 16.789062 30.765625 C 17.175781 30.78125 17.238281 30.773438 17.539062 30.71875 C 18.222656 30.578125 18.707031 30.382812 19.207031 30.035156 C 19.46875 29.851562 19.898438 29.421875 20.078125 29.164062 C 20.238281 28.933594 20.632812 28.175781 20.742188 27.886719 C 20.910156 27.441406 20.933594 27.300781 20.933594 26.8125 C 20.933594 26.390625 20.929688 26.351562 20.867188 26.164062 C 20.734375 25.769531 20.53125 25.488281 20.28125 25.335938 C 19.414062 24.824219 18.808594 23.964844 18.601562 22.941406 C 18.546875 22.683594 18.546875 22.664062 18.585938 22.503906 C 18.710938 21.976562 18.742188 21.269531 18.664062 20.8125 C 18.582031 20.328125 18.40625 19.878906 18.148438 19.488281 C 17.898438 19.113281 17.359375 18.621094 16.914062 18.363281 C 16.394531 18.0625 15.683594 17.800781 15.113281 17.699219 C 15.015625 17.683594 14.835938 17.628906 14.710938 17.585938 C 13.992188 17.324219 13.035156 17.175781 12.488281 17.242188 Z M 12.488281 17.242188 "/>
</g>
</svg>
